<?xml version="1.0" encoding="UTF-8"?><svg id="Layer_1" xmlns="http://www.w3.org/2000/svg" viewBox="0 0 326.81 192.84"><defs><style>.cls-1{stroke-width:0px;}</style></defs><path class="cls-1" d="M54.82,53.89h19.39c1.31.05,2.61.05,3.92.2,10.35.95,15.47,8.19,15.47,17.33,0,4.07-1,8.09-3.47,11.35-4.97,6.48-11.66,6.53-17.03,6.58h-18.29v-35.47ZM63.66,60.17v22.91h9.8c3.17-.05,6.78-.1,9.14-3.47,1.05-1.46,2.16-3.92,2.16-8.39,0-3.37-.75-5.68-1.76-7.28-2.31-3.67-6.03-3.72-9.09-3.77h-10.25Z"/><path class="cls-1" d="M137.56,59.67c1.46,1.76,3.82,5.68,3.82,11.6,0,11.3-7.33,19.24-21.65,19.24s-21.9-7.79-21.9-18.84c0-12.21,8.74-18.39,20.4-18.89,6.98-.3,14.92,1.51,19.34,6.88ZM106.97,71.88c0,4.32,1.6,6.58,2.26,7.44.85,1.21,3.47,4.87,10.35,4.87,8.29,0,12.71-5.63,12.71-12.46,0-7.94-5.98-12.81-13.06-12.56-5.93.2-12.26,4.12-12.26,12.71Z"/><path class="cls-1" d="M146.2,53.89h19.39c1.31.05,2.61.05,3.92.2,10.35.95,15.47,8.19,15.47,17.33,0,4.07-1,8.09-3.47,11.35-4.97,6.48-11.65,6.53-17.03,6.58h-18.29v-35.47ZM155.04,60.17v22.91h9.8c3.16-.05,6.78-.1,9.14-3.47,1.05-1.46,2.16-3.92,2.16-8.39,0-3.37-.75-5.68-1.76-7.28-2.31-3.67-6.03-3.72-9.09-3.77h-10.25Z"/><path class="cls-1" d="M238.05,53.89h33.06v6.38h-24.17v7.99h23.36v6.28h-23.36v8.49h25.17v6.33h-34.06v-35.47Z"/><path class="cls-1" d="M232.42,71.85c0,12.79-10.01,18.56-20.23,18.56-17.47,0-22.62-10.45-22.62-18.94,0-4.62,1.66-9.09,4.82-12.51,5.88-6.28,15.07-6.28,17.83-6.28,3.18,0,8.65.73,12.87,3.37,3.87,2.42,5.43,5.12,6.33,6.73l-9.51,1.36c-1.46-1.76-4.58-4.87-10.04-4.87-7.58,0-13.16,4.42-13.16,12.31,0,6.93,4.77,12.36,13.41,12.36,5.37,0,10.17-2.76,11.93-7.51h-13.4v-6.38h21.77v1.81Z"/><path class="cls-1" d="M72.1,107.06c-.29.96-.63,2.07-2.01,3.34-1.24,1.13-3.29,2.42-7.22,2.42-5.47,0-9.27-2.86-9.27-8.24,0-5.8,4.62-8.16,9.49-8.16,1.77,0,6.82.39,8.83,4.8l-4.23.52c-.41-.65-1.61-2.49-4.6-2.49-3.49,0-5.47,2.42-5.47,5.36,0,3.36,2.64,5.36,5.56,5.36,3.33,0,4.36-1.96,4.86-2.9l4.06-.02Z"/><path class="cls-1" d="M90.93,99.4c.63.76,1.66,2.46,1.66,5.04,0,4.91-3.18,8.35-9.4,8.35s-9.51-3.38-9.51-8.18c0-5.3,3.79-7.98,8.85-8.2,3.03-.13,6.48.65,8.39,2.99ZM77.65,104.7c0,1.88.7,2.86.98,3.23.37.52,1.51,2.11,4.49,2.11,3.6,0,5.52-2.44,5.52-5.41,0-3.45-2.59-5.56-5.67-5.45-2.57.09-5.32,1.79-5.32,5.52Z"/><path class="cls-1" d="M95.51,96.9h3.84l7.55,8.57c.92,1.07,1.09,1.29,2.05,2.49-.13-1.46-.13-1.85-.15-3.18v-7.87h3.68v15.39h-3.82l-7.63-8.68c-.81-.94-1.14-1.33-1.99-2.42.11,1.18.11,1.44.13,2.62v8.48h-3.66v-15.39Z"/><path class="cls-1" d="M118.37,107.51c.87,1.85,3.07,2.42,5.17,2.42.94,0,3.88-.15,3.88-2.03,0-1.11-1.07-1.37-1.9-1.53-.63-.13-3.79-.61-4.51-.74-1.42-.26-4.99-.94-4.99-4.43,0-.76.22-1.55.61-2.18,1.29-2.07,4.12-2.62,6.56-2.62,2.25,0,3.97.33,5.56,1.2,1.57.85,2.25,1.98,2.55,2.49l-3.66.92c-.13-.24-.44-.81-1.35-1.26-1.03-.5-2.36-.59-3.1-.59-1.7,0-3.44.33-3.44,1.79,0,1,.89,1.26,2.05,1.53.63.13,3.77.65,4.49.81,1.79.33,4.82.98,4.82,4.36,0,4.95-5.89,5.12-7.83,5.12-2.53,0-6.43-.44-8.41-4.34l3.51-.92Z"/><path class="cls-1" d="M132.94,96.9h15.29v2.81h-5.71v12.58h-3.86v-12.58h-5.71v-2.81Z"/><path class="cls-1" d="M150.38,96.9h10.6c1.75,0,3.34.15,4.62,1.64.78.92,1,2.07,1,2.97,0,1.18-.39,2.57-1.48,3.4-.83.63-1.9.85-2.51.96l4.67,6.43h-4.53l-4.12-6.19h-4.38v6.19h-3.86v-15.39ZM154.24,103.37h6.15c.83,0,2.31-.11,2.31-1.83,0-.31-.04-.83-.31-1.2-.28-.37-.65-.74-2.18-.74h-5.97v3.77Z"/><path class="cls-1" d="M169.19,96.9h3.84v9.05c0,1.37.28,2.53,1.74,3.23,1.24.59,2.36.55,3.49.5,1.46-.13,2.4-.52,3.01-1.22.37-.44.7-.94.65-2.49v-9.07h3.84v8.94c-.02,1.64-.02,3.18-1.33,4.62-1.59,1.77-4.56,2.36-6.89,2.36-1.09,0-2.18-.11-3.25-.37-.74-.17-1.7-.48-2.66-1.11-2.42-1.64-2.44-3.66-2.44-5.49v-8.94Z"/><path class="cls-1" d="M207.06,107.06c-.28.96-.63,2.07-2.01,3.34-1.24,1.13-3.29,2.42-7.22,2.42-5.47,0-9.27-2.86-9.27-8.24,0-5.8,4.62-8.16,9.49-8.16,1.76,0,6.82.39,8.83,4.8l-4.23.52c-.42-.65-1.61-2.49-4.6-2.49-3.49,0-5.47,2.42-5.47,5.36,0,3.36,2.64,5.36,5.56,5.36,3.34,0,4.36-1.96,4.86-2.9l4.06-.02Z"/><path class="cls-1" d="M207.95,96.9h15.29v2.81h-5.71v12.58h-3.86v-12.58h-5.71v-2.81Z"/><path class="cls-1" d="M225.38,96.9h3.86v15.39h-3.86v-15.39Z"/><path class="cls-1" d="M249.36,99.4c.63.76,1.66,2.46,1.66,5.04,0,4.91-3.18,8.35-9.4,8.35s-9.51-3.38-9.51-8.18c0-5.3,3.79-7.98,8.85-8.2,3.03-.13,6.48.65,8.4,2.99ZM236.08,104.7c0,1.88.7,2.86.98,3.23.37.52,1.5,2.11,4.49,2.11,3.6,0,5.52-2.44,5.52-5.41,0-3.45-2.59-5.56-5.67-5.45-2.57.09-5.32,1.79-5.32,5.52Z"/><path class="cls-1" d="M253.93,96.9h3.84l7.54,8.57c.92,1.07,1.09,1.29,2.05,2.49-.13-1.46-.13-1.85-.15-3.18v-7.87h3.68v15.39h-3.82l-7.63-8.68c-.81-.94-1.13-1.33-1.98-2.42.11,1.18.11,1.44.13,2.62v8.48h-3.66v-15.39Z"/><path class="cls-1" d="M54.65,119.79h6.28s12.35,14.03,12.35,14.03c1.5,1.75,1.78,2.11,3.36,4.07-.21-2.39-.21-3.03-.25-5.21v-12.89h6.03s0,25.2,0,25.2h-6.25s-12.49-14.21-12.49-14.21c-1.32-1.54-1.86-2.18-3.25-3.96.18,1.93.18,2.36.22,4.28v13.88h-6s0-25.2,0-25.2Z"/><path class="cls-1" d="M86.28,119.79h23.48v4.53h-17.17s0,5.68,0,5.68h16.6v4.46h-16.6s0,6.03,0,6.03h17.88v4.5h-24.2s0-25.2,0-25.2Z"/><path class="cls-1" d="M112.69,119.79h25.02v4.6h-9.35s0,20.59,0,20.59h-6.32s0-20.59,0-20.59h-9.35v-4.6Z"/><path class="cls-1" d="M139.74,119.79h6.1s3.28,15.13,3.28,15.13c.29,1.39.36,1.82.54,3.35.25-1.64.32-1.96.79-3.53l4.96-14.96h6.57s4.75,14.03,4.75,14.03c.57,1.75.68,2.21,1,4.21.14-1.71.21-2.21.53-4l3.21-14.24h6.03s-6.6,25.2-6.6,25.2h-6.17s-5.1-15.28-5.1-15.28c-.54-1.68-.61-2-.93-3.68-.39,1.68-.5,2-.97,3.57l-5.1,15.38h-6.28s-6.6-25.2-6.6-25.2Z"/><path class="cls-1" d="M207.25,123.9c1.04,1.25,2.71,4.03,2.71,8.24,0,8.03-5.21,13.67-15.38,13.67s-15.56-5.53-15.56-13.38c0-8.67,6.21-13.06,14.49-13.42,4.96-.21,10.6,1.07,13.74,4.89ZM185.51,132.57c0,3.07,1.14,4.68,1.61,5.28.61.86,2.46,3.46,7.35,3.46,5.89,0,9.03-4,9.03-8.85,0-5.64-4.25-9.1-9.28-8.92-4.21.14-8.71,2.93-8.71,9.03Z"/><path class="cls-1" d="M214.58,119.79h17.35c2.85,0,5.46.25,7.57,2.68,1.28,1.5,1.64,3.39,1.64,4.85,0,1.93-.64,4.21-2.43,5.57-1.36,1.03-3.11,1.39-4.1,1.57l7.64,10.53h-7.42s-6.74-10.14-6.74-10.14h-7.17s0,10.14,0,10.14h-6.32s0-25.2,0-25.2ZM220.9,130.39h10.06c1.36,0,3.78-.18,3.78-3,0-.5-.07-1.36-.5-1.96-.47-.61-1.07-1.21-3.57-1.21h-9.78s0,6.17,0,6.17Z"/><path class="cls-1" d="M245.56,119.79h6.25v11.03s12.31-11.03,12.31-11.03h8.1s-12.28,10.64-12.28,10.64l13.99,14.56h-8.42s-9.89-10.85-9.89-10.85l-3.82,3.28v7.57h-6.25s0-25.2,0-25.2Z"/></svg>